<?xml version="1.0" encoding="UTF-8"?>
<svg id="_レイヤー_2" data-name="レイヤー 2" xmlns="http://www.w3.org/2000/svg" viewBox="0 0 600 100">
  <defs>
    <style>
      .cls-1 {
        fill: #d6d6d6;
      }

      .cls-1, .cls-2, .cls-3 {
        stroke-width: 0px;
      }

      .cls-2, .cls-4 {
        fill: none;
      }

      .cls-4 {
        stroke: #ff0;
        stroke-miterlimit: 10;
        stroke-width: 2px;
      }

      .cls-3 {
        fill: #fcee21;
      }
    </style>
  </defs>
  <g id="_レイヤー_1-2" data-name="レイヤー 1">
    <g>
      <g>
        <path class="cls-3" d="M29.2,9.82h17.9v59.5h29v15H29.2V9.82Z"/>
        <path class="cls-3" d="M101.9,58.02l-22.4-48.2h19l6.2,16.6c2,5.6,3.9,10.8,6,16.6h.4c2.1-5.8,4.1-11,6.2-16.6l6.2-16.6h18.7l-22.5,48.2v26.3h-17.8v-26.3Z"/>
        <path class="cls-3" d="M149.8,9.82h18.2l18.5,35.7,7.3,16.5h.5c-.9-7.9-2.4-18.6-2.4-27.5V9.82h17v74.5h-18.2l-18.4-35.9-7.3-16.3h-.5c.8,8.3,2.3,18.5,2.3,27.5v24.7h-17V9.82Z"/>
        <path class="cls-3" d="M239.3,46.02l-19.3-36.2h19.9l6,13.4c1.7,3.5,3.3,7.4,5.4,12.2h.4c1.7-4.8,3.3-8.7,4.8-12.2l5.4-13.4h18.9l-19.2,37,20.5,37.5h-19.9l-6.9-14.5c-1.8-3.9-3.5-7.8-5.5-12.4h-.4c-1.7,4.6-3.4,8.5-5.1,12.4l-6.4,14.5h-19l20.4-38.3Z"/>
        <path class="cls-1" d="M301.4,47.52c0-24.8,16.6-39,35.5-39,9.7,0,17.5,4.5,22.6,9.7l-9.3,11.4c-3.8-3.4-7.7-5.8-13-5.8-9.6,0-17.5,8.6-17.5,23.1s6.8,23.4,17.3,23.4c6,0,10.7-3,14.2-6.8l9.4,11.2c-6.3,7.3-14.6,11-24.3,11-18.9,0-34.9-13-34.9-38.2Z"/>
        <path class="cls-1" d="M368.1,46.72c0-24.4,13.8-38.2,34.1-38.2s34.1,13.9,34.1,38.2-13.8,39-34.1,39-34.1-14.6-34.1-39ZM418.1,46.72c0-14.4-6.1-22.9-15.9-22.9s-15.8,8.5-15.8,22.9,6,23.6,15.8,23.6,15.9-9.2,15.9-23.6Z"/>
        <path class="cls-1" d="M450.1,9.82h21.4c22.7,0,37.7,11,37.7,36.9s-15,37.6-36.7,37.6h-22.4V9.82ZM470.4,69.92c12,0,20.5-5.5,20.5-23.2s-8.5-22.6-20.5-22.6h-2.4v45.8h2.4Z"/>
        <path class="cls-1" d="M523,9.82h47.2v14.9h-29.3v13.8h24.9v15h-24.9v15.8h30.4v15h-48.3V9.82Z"/>
        <line class="cls-4" x1="28.03" y1="91.48" x2="571.97" y2="91.48"/>
      </g>
      <rect class="cls-2" width="600" height="100"/>
    </g>
  </g>
</svg>